<?xml version="1.0" standalone="no"?>
<!DOCTYPE svg PUBLIC "-//W3C//DTD SVG 20010904//EN"
 "http://www.w3.org/TR/2001/REC-SVG-20010904/DTD/svg10.dtd">
<svg version="1.0" xmlns="http://www.w3.org/2000/svg"
 width="512.000000pt" height="512.000000pt" viewBox="0 0 512.000000 512.000000"
 preserveAspectRatio="xMidYMid meet">

<g transform="translate(0.000000,512.000000) scale(0.100000,-0.100000)"
fill="#000000" stroke="none">
<path d="M3713 4931 c-105 -39 -195 -121 -242 -220 -23 -50 -26 -68 -26 -171
0 -106 2 -119 28 -172 57 -113 140 -183 261 -220 231 -70 472 83 518 329 31
170 -67 355 -231 436 -57 28 -76 32 -160 34 -75 2 -108 -2 -148 -16z"/>
<path d="M833 4212 c-126 -45 -222 -166 -239 -300 -19 -154 79 -316 226 -374
82 -32 196 -30 272 4 75 35 147 104 184 175 26 52 29 68 29 153 0 82 -4 103
-27 152 -34 73 -103 142 -176 176 -75 35 -192 41 -269 14z"/>
<path d="M2393 3972 c-10 -10 -63 -167 -122 -365 l-105 -347 21 -27 c16 -23
46 -36 154 -70 151 -47 182 -51 207 -25 9 10 62 166 121 365 l104 348 -20 27
c-16 22 -47 35 -154 69 -151 47 -182 51 -206 25z"/>
<path d="M3394 3876 c-61 -27 -101 -74 -154 -184 -29 -59 -165 -348 -303 -642
-224 -479 -251 -541 -255 -596 -6 -93 37 -164 120 -199 76 -31 173 -10 230 51
14 16 71 125 126 242 55 117 103 216 106 219 3 4 6 -104 6 -240 l0 -245 228
-4 227 -3 55 -31 c72 -41 114 -102 134 -197 232 -1105 224 -1052 171 -1143
-27 -47 -92 -100 -133 -111 l-23 -5 3 -173 3 -173 30 -43 c66 -94 174 -135
275 -106 69 20 131 72 162 135 l23 47 5 1144 5 1144 104 -221 c57 -122 115
-232 130 -246 58 -56 152 -71 226 -37 71 32 125 113 125 187 0 37 -21 84 -285
649 -312 666 -324 692 -367 732 -66 63 -65 63 -525 63 -327 -1 -425 -4 -449
-14z"/>
<path d="M872 3319 c-109 -21 -221 -111 -270 -217 l-27 -57 0 -580 0 -580 29
-56 c38 -76 106 -143 182 -180 57 -29 75 -32 211 -40 81 -4 199 -13 261 -19
63 -7 116 -10 118 -8 4 4 84 383 84 398 0 5 -26 10 -57 12 l-58 3 -3 378 c-1
207 1 377 5 377 5 0 95 -36 201 -80 211 -88 263 -98 333 -62 36 19 529 411
529 422 0 3 -55 23 -122 43 -68 21 -134 45 -148 56 -33 24 -70 89 -70 124 0
26 -8 21 -155 -98 l-156 -127 -342 141 c-188 77 -362 145 -387 150 -52 12 -98
12 -158 0z"/>
<path d="M195 3036 c-45 -19 -83 -70 -90 -119 -4 -24 -5 -252 -2 -508 4 -377
7 -476 20 -530 79 -327 274 -582 551 -719 144 -70 224 -91 384 -97 l132 -6 0
-366 c0 -201 5 -384 10 -405 5 -23 23 -54 44 -74 29 -30 43 -36 88 -40 44 -3
59 0 88 20 64 43 67 62 62 340 l-4 247 -33 11 c-53 17 -111 65 -140 114 -42
71 -42 126 -1 321 19 93 33 171 31 173 -2 2 -37 -4 -77 -13 -90 -20 -226 -20
-314 0 -193 45 -372 191 -465 380 -73 149 -72 144 -78 690 -6 465 -7 492 -26
523 -21 35 -86 72 -126 72 -13 -1 -38 -7 -54 -14z"/>
<path d="M1789 2170 c-112 -9 -171 -27 -188 -57 -20 -39 -232 -1077 -226
-1110 13 -71 85 -123 169 -123 l45 0 3 -282 c3 -317 3 -314 79 -357 76 -43
164 -19 216 58 23 33 23 40 23 307 l0 274 795 0 794 0 3 -279 c3 -264 4 -281
24 -307 39 -53 70 -69 137 -69 49 0 69 5 95 23 64 47 67 58 70 360 l3 272 30
0 c69 0 142 58 154 123 9 46 -208 1072 -233 1107 -11 14 -33 33 -50 43 -29 17
-85 18 -934 22 -497 2 -950 0 -1009 -5z"/>
<path d="M3272 618 c3 -157 4 -165 31 -210 23 -40 73 -88 91 -88 3 0 6 104 6
230 l0 230 -66 0 -66 0 4 -162z"/>
</g>
</svg>
